<svg xmlns:xlink="http://www.w3.org/1999/xlink" xmlns="http://www.w3.org/2000/svg" width="322.50862595965293" height="80" viewBox="0 0 322.50862595965293 80" class="css-1j8o68f"><defs id="SvgjsDefs1112"></defs><g id="SvgjsG1113" featurekey="nRdZyp-0" transform="matrix(1.9053970343377267,0,0,1.9053970343377267,-45.06264276949238,-59.45983683278913)" fill="#000000"><g xmlns="http://www.w3.org/2000/svg"><g><g><g><g><path d="M34.679,59.56c0,1.321-0.943,2.396-2.111,2.396h-3.035h-3.753c-1.169,0-2.129-1.075-2.129-2.396       c0-1.317,0.96-2.374,2.129-2.374h3.753h3.035C33.735,57.186,34.679,58.242,34.679,59.56z"></path><path d="M74.083,64.369v4.355c0,2.469-2.094,4.468-4.638,4.468H34.171c-2.565,0-4.639-1.999-4.639-4.468v-3.81h3.035       c1.754,0,3.299-0.943,4.223-2.356c0.547-0.866,0.849-1.904,0.849-2.999c0-2.939-2.263-5.354-5.071-5.354h-3.035v-4.297h3.035       c2.809,0,5.071-2.413,5.071-5.354c0-2.942-2.263-5.355-5.071-5.355h-3.035v-3.508c0-2.469,2.073-4.485,4.639-4.485h35.274       c2.544,0,4.638,2.017,4.638,4.485V64.369z M70.615,61.145V39.69c0-2.564-0.209-4.658-2.678-4.658H55.305h-8.598       c-2.451,0-4.448,2.094-4.448,4.658v20.135c0.019,0,0.036-0.018,0.075-0.018c5.807-1.584,8.709-2.266,9.369-4.15h0.303       c-0.094-0.073-0.17-0.131-0.245-0.226c-2.471-2.224-4.355-6.562-4.355-10.066c0-4.961,4.053-8.221,7.899-8.221       c3.826,0,7.692,3.525,7.692,8.483c0,3.508-2.093,7.692-4.657,9.859c0.509,2.019,3.413,2.678,9.408,4.32       C69.029,60.164,69.953,60.599,70.615,61.145z M53.475,55.657h0.302c-0.075-0.073-0.169-0.131-0.244-0.226       C53.513,55.508,53.495,55.584,53.475,55.657z"></path><path d="M53.776,55.657h-0.302c0.021-0.073,0.038-0.149,0.058-0.226C53.607,55.526,53.701,55.584,53.776,55.657z"></path><path d="M32.567,42.16c1.168,0,2.111,1.072,2.111,2.395c0,1.318-0.943,2.375-2.111,2.375h-3.035h-3.753       c-1.169,0-2.129-1.057-2.129-2.375c0-1.322,0.96-2.395,2.129-2.395h3.753H32.567z"></path></g></g></g></g></g></g><g id="SvgjsG1114" featurekey="Q4qmbg-0" transform="matrix(3.35025367735834,0,0,3.35025367735834,118.18578719857358,-10.153298444668593)" fill="#000000"><path d="M3.82 5.119999999999999 l0 14.88 l-2.98 0 l0 -14.88 l2.98 0 z M10.343895833333333 12.42 c-1.22 0 -2.24 1.08 -2.24 2.66 c0 1.56 1.02 2.64 2.24 2.64 c1.24 0 2.26 -1.08 2.26 -2.64 c0 -1.58 -1.02 -2.66 -2.26 -2.66 z M10.343895833333333 9.98 c2.9 0 5.22 2.18 5.22 5.1 s-2.32 5.08 -5.22 5.08 c-2.88 0 -5.2 -2.16 -5.2 -5.08 s2.32 -5.1 5.2 -5.1 z M23.727791666666665 16.46 l2.08 1.88 c-1.12 1.24 -2.58 1.82 -4.14 1.82 c-2.88 0 -5.2 -2.16 -5.2 -5.08 s2.32 -5.1 5.2 -5.1 c1.56 0 3.02 0.58 4.14 1.82 l-2.08 1.88 c-0.44 -1.02 -1.4 -1.26 -2.06 -1.26 c-1.22 0 -2.24 1.08 -2.24 2.66 c0 1.56 1.02 2.64 2.24 2.64 c0.66 0 1.64 -0.18 2.06 -1.26 z M29.391687499999996 13.04 l-2.2 -1.26 c1.1 -1.24 2.58 -1.82 4.12 -1.82 c2.96 0 4.16 1.62 4.16 3.14 l0 6.9 l-2.96 0 l0 -0.7 c-0.46 0.48 -1.28 0.84 -2.2 0.84 c-2.7 0 -3.74 -1.2 -3.74 -3.04 c0 -2.08 1.68 -3.48 4.4 -3.48 l1.54 0 c0 -0.74 -0.56 -1.22 -1.4 -1.22 c-0.86 0 -1.28 0.16 -1.72 0.64 z M32.5116875 16.740000000000002 l0 -0.88 l-1.74 0 c-0.78 0 -1.36 0.54 -1.24 1.3 c0.08 0.54 0.56 0.76 1.24 0.76 c1.3 0 1.74 -0.74 1.74 -1.18 z M40.115583333333326 5.119999999999999 l0 14.88 l-2.98 0 l0 -14.88 l2.98 0 z M45.39947916666666 18.38 c0 1.02 -0.84 1.8 -1.9 1.8 s-1.88 -0.78 -1.88 -1.8 c0 -0.96 0.82 -1.76 1.88 -1.76 s1.9 0.8 1.9 1.76 z M49.38337499999999 5.119999999999999 l0 14.88 l-2.98 0 l0 -14.88 l2.98 0 z M57.907270833333314 10.12 l3.08 0 s-2.56 6.02 -4.06 9.6 c-1.34 3.18 -2.32 5.1 -4.46 5.1 c-0.88 0 -1.94 -0.86 -2.24 -1.1 l0.86 -2.44 c0.4 0.38 0.92 0.62 1.34 0.62 c1.02 0 1.56 -2.06 1.9 -3.26 l-3.62 -8.52 l3.08 0 l2.06 4.94 c0.66 -1.6 1.42 -3.42 2.06 -4.94 z"></path></g></svg>